<mxfile host="65bd71144e" modified="2020-11-27T16:19:36.791Z" agent="5.0 (Windows NT 10.0; Win64; x64) AppleWebKit/537.36 (KHTML, like Gecko) Code/1.51.1 Chrome/83.0.4103.122 Electron/9.3.3 Safari/537.36" etag="PwO1Do0n-aFgSkTCTfy1" version="13.6.5" pages="2">
    <diagram id="D3i4Uobr4cADHH1MFfUY" name="Geometrie Roboter">
        <mxGraphModel dx="1118" dy="658" grid="1" gridSize="10" guides="1" tooltips="1" connect="1" arrows="1" fold="1" page="1" pageScale="1" pageWidth="1169" pageHeight="827" math="0" shadow="0">
            <root>
                <mxCell id="0"/>
                <mxCell id="1" parent="0"/>
                <mxCell id="2" value="" style="rounded=0;whiteSpace=wrap;html=1;" parent="1" vertex="1">
                    <mxGeometry x="510" y="390" width="20" height="40" as="geometry"/>
                </mxCell>
            </root>
        </mxGraphModel>
    </diagram>
    <diagram id="-wV9VM4m8-nCvBPlUMMF" name="Software-Architektur">
        <mxGraphModel dx="1118" dy="1485" grid="1" gridSize="10" guides="1" tooltips="1" connect="1" arrows="1" fold="1" page="1" pageScale="1" pageWidth="1169" pageHeight="827" background="#F1FAEE" math="0" shadow="0">
            <root>
                <mxCell id="WznbyY4W6Lx3Tdj7Ml-Z-0"/>
                <mxCell id="WznbyY4W6Lx3Tdj7Ml-Z-1" parent="WznbyY4W6Lx3Tdj7Ml-Z-0"/>
                <mxCell id="WznbyY4W6Lx3Tdj7Ml-Z-2" value="main thread" style="rounded=0;whiteSpace=wrap;html=1;fillColor=#A8DADC;strokeColor=#457B9D;fontColor=#1D3557;" parent="WznbyY4W6Lx3Tdj7Ml-Z-1" vertex="1">
                    <mxGeometry x="140" y="150" width="120" height="60" as="geometry"/>
                </mxCell>
                <mxCell id="WznbyY4W6Lx3Tdj7Ml-Z-3" value="autopilot&lt;br&gt;&amp;nbsp;thread" style="rounded=0;whiteSpace=wrap;html=1;fillColor=#A8DADC;strokeColor=#457B9D;fontColor=#1D3557;" parent="WznbyY4W6Lx3Tdj7Ml-Z-1" vertex="1">
                    <mxGeometry x="340" y="150" width="120" height="60" as="geometry"/>
                </mxCell>
                <mxCell id="WznbyY4W6Lx3Tdj7Ml-Z-4" value="monitor thread" style="rounded=0;whiteSpace=wrap;html=1;fillColor=#A8DADC;strokeColor=#457B9D;fontColor=#1D3557;" parent="WznbyY4W6Lx3Tdj7Ml-Z-1" vertex="1">
                    <mxGeometry x="540" y="150" width="120" height="60" as="geometry"/>
                </mxCell>
                <mxCell id="WznbyY4W6Lx3Tdj7Ml-Z-5" value="speed sensor" style="rounded=0;whiteSpace=wrap;html=1;fillColor=#A8DADC;strokeColor=#457B9D;fontColor=#1D3557;" parent="WznbyY4W6Lx3Tdj7Ml-Z-1" vertex="1">
                    <mxGeometry x="340" y="260" width="120" height="60" as="geometry"/>
                </mxCell>
                <mxCell id="WznbyY4W6Lx3Tdj7Ml-Z-6" value="adc sensor" style="rounded=0;whiteSpace=wrap;html=1;fillColor=#A8DADC;strokeColor=#457B9D;fontColor=#1D3557;" parent="WznbyY4W6Lx3Tdj7Ml-Z-1" vertex="1">
                    <mxGeometry x="340" y="360" width="120" height="60" as="geometry"/>
                </mxCell>
                <mxCell id="WznbyY4W6Lx3Tdj7Ml-Z-7" value="gyroscope sensor" style="rounded=0;whiteSpace=wrap;html=1;fillColor=#A8DADC;strokeColor=#457B9D;fontColor=#1D3557;" parent="WznbyY4W6Lx3Tdj7Ml-Z-1" vertex="1">
                    <mxGeometry x="340" y="470" width="120" height="60" as="geometry"/>
                </mxCell>
                <mxCell id="WznbyY4W6Lx3Tdj7Ml-Z-8" value="ultrasonic sensor" style="rounded=0;whiteSpace=wrap;html=1;fillColor=#A8DADC;strokeColor=#457B9D;fontColor=#1D3557;" parent="WznbyY4W6Lx3Tdj7Ml-Z-1" vertex="1">
                    <mxGeometry x="340" y="570" width="120" height="60" as="geometry"/>
                </mxCell>
                <mxCell id="WznbyY4W6Lx3Tdj7Ml-Z-9" value="log2disk" style="rounded=0;whiteSpace=wrap;html=1;fillColor=#A8DADC;strokeColor=#457B9D;fontColor=#1D3557;" parent="WznbyY4W6Lx3Tdj7Ml-Z-1" vertex="1">
                    <mxGeometry x="540" y="260" width="120" height="60" as="geometry"/>
                </mxCell>
                <mxCell id="WznbyY4W6Lx3Tdj7Ml-Z-10" value="log2db" style="rounded=0;whiteSpace=wrap;html=1;fillColor=#A8DADC;strokeColor=#457B9D;fontColor=#1D3557;" parent="WznbyY4W6Lx3Tdj7Ml-Z-1" vertex="1">
                    <mxGeometry x="540" y="350" width="120" height="60" as="geometry"/>
                </mxCell>
                <mxCell id="WznbyY4W6Lx3Tdj7Ml-Z-14" style="edgeStyle=orthogonalEdgeStyle;rounded=1;orthogonalLoop=1;jettySize=auto;html=1;entryX=0.5;entryY=0;entryDx=0;entryDy=0;endArrow=none;endFill=0;labelBackgroundColor=#F1FAEE;strokeColor=#457B9D;fontColor=#1D3557;" parent="WznbyY4W6Lx3Tdj7Ml-Z-1" source="WznbyY4W6Lx3Tdj7Ml-Z-11" target="WznbyY4W6Lx3Tdj7Ml-Z-2" edge="1">
                    <mxGeometry relative="1" as="geometry"/>
                </mxCell>
                <mxCell id="WznbyY4W6Lx3Tdj7Ml-Z-15" style="edgeStyle=orthogonalEdgeStyle;rounded=0;orthogonalLoop=1;jettySize=auto;html=1;entryX=0.5;entryY=0;entryDx=0;entryDy=0;endArrow=none;endFill=0;labelBackgroundColor=#F1FAEE;strokeColor=#457B9D;fontColor=#1D3557;" parent="WznbyY4W6Lx3Tdj7Ml-Z-1" source="WznbyY4W6Lx3Tdj7Ml-Z-11" target="WznbyY4W6Lx3Tdj7Ml-Z-3" edge="1">
                    <mxGeometry relative="1" as="geometry"/>
                </mxCell>
                <mxCell id="WznbyY4W6Lx3Tdj7Ml-Z-16" style="edgeStyle=orthogonalEdgeStyle;rounded=1;orthogonalLoop=1;jettySize=auto;html=1;exitX=1;exitY=0.5;exitDx=0;exitDy=0;endArrow=none;endFill=0;labelBackgroundColor=#F1FAEE;fontColor=#1D3557;strokeColor=#2D7600;fillColor=#60a917;" parent="WznbyY4W6Lx3Tdj7Ml-Z-1" source="WznbyY4W6Lx3Tdj7Ml-Z-11" target="WznbyY4W6Lx3Tdj7Ml-Z-4" edge="1">
                    <mxGeometry relative="1" as="geometry"/>
                </mxCell>
                <mxCell id="WznbyY4W6Lx3Tdj7Ml-Z-11" value="debuglog" style="rounded=0;whiteSpace=wrap;html=1;fillColor=#A8DADC;strokeColor=#457B9D;fontColor=#1D3557;" parent="WznbyY4W6Lx3Tdj7Ml-Z-1" vertex="1">
                    <mxGeometry x="340" y="-10" width="120" height="60" as="geometry"/>
                </mxCell>
                <mxCell id="WznbyY4W6Lx3Tdj7Ml-Z-17" style="edgeStyle=orthogonalEdgeStyle;curved=0;rounded=1;sketch=0;orthogonalLoop=1;jettySize=auto;html=1;entryX=0;entryY=0.5;entryDx=0;entryDy=0;strokeColor=#457B9D;fillColor=#A8DADC;fontColor=#1D3557;startArrow=none;startFill=0;" parent="WznbyY4W6Lx3Tdj7Ml-Z-1" source="WznbyY4W6Lx3Tdj7Ml-Z-12" target="WznbyY4W6Lx3Tdj7Ml-Z-3" edge="1">
                    <mxGeometry relative="1" as="geometry"/>
                </mxCell>
                <mxCell id="WznbyY4W6Lx3Tdj7Ml-Z-12" value="TracyController" style="rounded=0;whiteSpace=wrap;html=1;fillColor=#A8DADC;strokeColor=#457B9D;fontColor=#1D3557;" parent="WznbyY4W6Lx3Tdj7Ml-Z-1" vertex="1">
                    <mxGeometry x="140" y="260" width="120" height="60" as="geometry"/>
                </mxCell>
                <mxCell id="WznbyY4W6Lx3Tdj7Ml-Z-13" value="utils" style="rounded=0;whiteSpace=wrap;html=1;fillColor=#A8DADC;strokeColor=#457B9D;fontColor=#1D3557;" parent="WznbyY4W6Lx3Tdj7Ml-Z-1" vertex="1">
                    <mxGeometry x="340" y="-100" width="120" height="60" as="geometry"/>
                </mxCell>
                <mxCell id="Z4T5YDRV2L3D1rcLvUKd-0" value="Tracy" style="rounded=0;whiteSpace=wrap;html=1;fillColor=#A8DADC;strokeColor=#457B9D;fontColor=#1D3557;" parent="WznbyY4W6Lx3Tdj7Ml-Z-1" vertex="1">
                    <mxGeometry x="340" y="670" width="120" height="60" as="geometry"/>
                </mxCell>
                <mxCell id="Z4T5YDRV2L3D1rcLvUKd-1" value="TracysWorld" style="rounded=0;whiteSpace=wrap;html=1;fillColor=#A8DADC;strokeColor=#457B9D;fontColor=#1D3557;" parent="WznbyY4W6Lx3Tdj7Ml-Z-1" vertex="1">
                    <mxGeometry x="340" y="767" width="120" height="60" as="geometry"/>
                </mxCell>
            </root>
        </mxGraphModel>
    </diagram>
</mxfile>